# xmcd CD database file
#
# Track frame offsets:
#	150
#	19490
#	36645
#	52865
#	68745
#	82070
#	111192
#	127857
#	141460
#	151077
#
# Disc length: 2190 seconds
#
# Revision: 6
# Processed by: cddbd v1.5.1PL0 Copyright (c) Steve Scherf et al.
# Submitted via: CDex 1.51
#
DISCID=88088c0a
DTITLE=Various Artist - Miles Of Country
DYEAR=1994
DGENRE=Country
TTITLE0=Dolly Parton - White Limozeen
TTITLE1=Dr Hook - Silvia's Mother
TTITLE2=Charlie Daniels Band - The Devil Went Down To Georgia
TTITLE3=Bobby Bare - The Gambler
TTITLE4=Tammy Wynette - D.I.V.O.R.C.E
TTITLE5=Chet Atkins and Mark Knopfler - There'll Be Some Changes Soon
TTITLE6=Johnny Cash - A Boy Named Sue
TTITLE7=George Jones - A Good Year For The Roses
TTITLE8=Lester Flatt and Earl Scruggs - Foggy Mountain Breakdown
TTITLE9=Lynn Anderson - Rose Garden
EXTD=Sony Music\nCatalog Number: LSP 9834122\n YEAR: 1994
EXTT0=
EXTT1=
EXTT2=
EXTT3=
EXTT4=
EXTT5=
EXTT6=
EXTT7=
EXTT8=
EXTT9=
PLAYORDER=
